<svg width="30" height="30" fill="none" xmlns="http://www.w3.org/2000/svg">
  <g clip-path="url(#prefix__clip0_827_1363)">
    <path d="M15 0c8.284 0 15 6.716 15 15 0 8.284-6.716 15-15 15-8.284 0-15-6.716-15-15C0 6.716 6.716 0 15 0z"
      fill="#fff" />
    <mask id="prefix__a" style="mask-type:alpha" maskUnits="userSpaceOnUse" x="0" y="0" width="30" height="30">
      <path d="M15 0c8.284 0 15 6.716 15 15 0 8.284-6.716 15-15 15-8.284 0-15-6.716-15-15C0 6.716 6.716 0 15 0z"
        fill="#fff" />
    </mask>
    <g mask="url(#prefix__a)" stroke="#000">
      <path
        d="M14.359 4C9.095 4 5 7.464 5 11.77c0 4.069 3.768 6.666 9.608 6.536.497-.011.64.338.802.808.162.47.596 2.946.943 4.84.31 1.696.624 3.398.865 5.107 3.814-.528 7.34-2.497 9.925-5.466l-2.756-10.743c-.687-2.595-1.49-4.985-3.615-6.722C19.062 4.733 16.89 4 14.359 4z"
        fill="#fff" stroke-width="1.308" />
      <path d="M14 8.5h2" stroke-width="1.3" stroke-linecap="round" />
      <path d="M12 30l3-4.5c.333.167 1.4.3 3-.5s5.5-4.167 7-6l2.5 3c.167.167-.4 1.5-4 5.5S14.333 30.833 12 30z"
        fill="#000" stroke-width="1.3" />
      <path
        d="M16.523 22.05l1.568 1.568a.35.35 0 01.01.485l-7.215 7.831a.35.35 0 01-.505.01L8.196 29.76a.35.35 0 01.01-.505l7.832-7.215a.35.35 0 01.485.01z"
        fill="#fff" stroke-width="1.3" />
      <path
        d="M23.46 13.167l3.706 3.706a.35.35 0 010 .495l-8.096 8.096a.35.35 0 01-.495 0l-3.706-3.707a.35.35 0 010-.495l8.096-8.095a.35.35 0 01.495 0zM12.604 23.926c-1.94-2.081-5.982-.173-7.76 1.04-3.814 2.604-1.068 5.724 2.424 7.806 4.366 2.601 6.306-1.561 7.276-3.122.97-1.561.485-3.122-1.94-5.724z"
        fill="#fff" stroke-width="1.3" />
    </g>
    <path d="M15 .65C22.925.65 29.35 7.075 29.35 15S22.925 29.35 15 29.35.65 22.925.65 15 7.075.65 15 .65z"
      stroke="#111" stroke-width="1.3" />
  </g>
  <defs>
    <clipPath id="prefix__clip0_827_1363">
      <path fill="#fff" d="M0 0h30v30H0z" />
    </clipPath>
  </defs>
</svg>